<?xml version="1.0" encoding="utf-8"?>
<!-- Generator: Adobe Illustrator 16.0.0, SVG Export Plug-In . SVG Version: 6.00 Build 0)  -->
<!DOCTYPE svg PUBLIC "-//W3C//DTD SVG 1.1//EN" "http://www.w3.org/Graphics/SVG/1.1/DTD/svg11.dtd">
<svg version="1.1" id="Layer_1" xmlns="http://www.w3.org/2000/svg" xmlns:xlink="http://www.w3.org/1999/xlink" x="0px" y="0px"
	 width="144px" height="144px" viewBox="425 0 144 144" enable-background="new 0 0 568.291 144" xml:space="preserve">
	<g>
		<path fill="#0077B5" d="M557.632,0H434.916c-5.864,0-10.629,4.648-10.629,10.376V133.61c0,5.734,4.765,10.39,10.629,10.39
			h122.716c5.874,0,10.659-4.655,10.659-10.39V10.376C568.291,4.648,563.506,0,557.632,0z"/>
		<path fill="#FFFFFF" d="M445.638,53.985h21.359v68.722h-21.359V53.985z M456.322,19.825c6.828,0,12.377,5.549,12.377,12.38
			c0,6.837-5.549,12.386-12.377,12.386c-6.846,0-12.387-5.549-12.387-12.386C443.936,25.375,449.477,19.825,456.322,19.825"/>
		<path fill="#FFFFFF" d="M480.394,53.985h20.485v9.39h0.286c2.852-5.403,9.818-11.099,20.209-11.099
			c21.628,0,25.621,14.234,25.621,32.736v37.694h-21.344v-33.42c0-7.969-0.146-18.22-11.099-18.22
			c-11.113,0-12.819,8.681-12.819,17.644v33.996h-21.34V53.985z"/>
	</g>
</svg>
